<svg width="481" height="436" fill="none" xmlns="http://www.w3.org/2000/svg"><g clip-path="url(#clip0_1359_1753)"><path d="M.12-2.421l-4.424-.029 1.877 4.005 63.942 136.43-49.853 104.219-1.912 3.997h51L-.587 433.13l-1.221 3.721 3.916-.059 649.944-9.834 3.557-.054-.898-3.442-70.879-271.778 55.452 52.575 4.557-2.944-36.26-104.229 50.797-91.142 2.296-4.12-4.717-.03L.119-2.422z" fill="#ECFF3B" stroke="#10150B" stroke-width="5.584"/><path d="M148.959 414.584h27.357v-46.573l26.735 46.573v-46.573h139.271v36.87l15.854-36.87 17.409 36.87h72.122v-29.593l18.964 29.593v-46.573l43.211 16.98-6.218-68.404 34.507-16.01-13.989 46.573h54.092l-40.103-148.315-104.44-23.723" stroke="#10150B" stroke-width="4.315"/><path d="M406.075 120.333l-35.062 27.098 12.85 34.972 43.271-10.273 27.215-25.87-9.488-34.767-38.786 8.84z" fill="#CEC9BD"/><path d="M427.707 173.191l-.302.079-44.272 10.517-13.502-36.742 35.937-27.777 40.12-9.142 9.947 36.515-27.928 26.55zm-43.108 7.844l41.963-9.962 26.483-25.176-9.012-33.023-37.448 8.537-34.186 26.419 12.2 33.205z" fill="#010101"/><path d="M426.026 172.491l-11.411-35.162-43.31 11.228-.584-2.25 45.43-11.777 12.09 37.242-2.215.719z" fill="#010101"/><path d="M415.38 135.928l29.48-24.436 9.489 34.767-27.216 25.871-11.753-36.202z" fill="#010101"/><path d="M444.114 110.609l-29.476 24.432 1.483 1.79 29.476-24.432-1.483-1.79z" fill="#010101"/><path d="M419.228 169.367l-16.068 4.165-2.347-7.237 16.064-4.165 2.351 7.237z" fill="#ECFF3B"/><path d="M420.711 170.179l-18.3 4.744-3.069-9.447 18.319-4.749 3.05 9.452zm-16.782 1.95l13.81-3.58-1.628-5.019-13.805 3.579 1.623 5.02z" fill="#010101"/><path d="M402.167 71.143c2.831 7.953-4.814 32.035-4.814 32.035s-21.143-13.833-23.99-21.777a15.277 15.277 0 019.268-19.523 15.28 15.28 0 0119.523 9.268l.013-.003z" fill="#ECFF3B"/><path d="M398.001 104.989l-1.284-.839c-.873-.571-21.499-14.116-24.435-22.364a16.448 16.448 0 019.919-21.156 16.434 16.434 0 0112.64.671 16.446 16.446 0 018.418 9.453c2.929 8.226-4.483 31.777-4.8 32.776l-.458 1.459zm-13.742-42.376c-.41.106-.819.213-1.219.374a14.126 14.126 0 00-8.57 18.011c2.276 6.393 17.639 17.21 22.227 20.333 1.586-5.314 6.653-23.407 4.363-29.795a14.124 14.124 0 00-16.801-8.923z" fill="#010101"/><path d="M389.147 81.728A6.057 6.057 0 10386.107 70a6.057 6.057 0 003.04 11.727z" fill="#CEC9BD"/><path d="M389.43 82.855a7.217 7.217 0 01-8.744-5.032 7.212 7.212 0 014.835-8.854 7.215 7.215 0 113.909 13.886zm-3.041-11.727l-.449.117a4.783 4.783 0 10.449-.117zm-14.774 77.141l-1.991-1.198 27.144-45.172 49.015 8.26-.385 2.29-47.453-7.993-26.33 43.813z" fill="#010101"/><path d="M398.378 102.628l-2.047 1.102 17.517 32.567 2.047-1.101-17.517-32.568z" fill="#010101"/><path d="M376.899 82.29a12.758 12.758 0 01-1.56-8.72c1.062-5.461 4.837-7.276 5-7.351l.979 2.108-.489-1.054.497 1.048c-.115.058-2.877 1.442-3.706 5.69a10.54 10.54 0 001.238 7.037l-1.959 1.242z" fill="#CEC9BD"/><path d="M138.624 267.833h169.351l36.144 9.685v155.813H138.624V267.833z" fill="#12190C"/><path d="M346.825 436.038H135.918v-170.91h172.414l38.493 10.313v160.597zm-205.495-5.411h200.085v-151.03l-33.798-9.058H141.33v160.088z" fill="#12190C"/><path d="M252.588 398.258H138.624v35.073h113.964v-35.073z" fill="#ECFF3B"/><path d="M255.294 436.038H135.918v-40.485h119.376v40.485zm-113.964-5.412h108.554v-29.662H141.33v29.662z" fill="#12190C"/><path d="M304.67 307.99h-52.086v125.348h52.086V307.99z" fill="#ECFF3B"/><path d="M307.377 436.038h-57.496V305.277h57.496v130.761zm-52.085-5.411h46.676V310.688h-46.676v119.939z" fill="#12190C"/><path d="M267.688 352.625h-5.41v29.761h5.41v-29.761z" fill="#12190C"/><path d="M252.588 294.021H138.624v104.236h113.964V294.021z" fill="#CEC9BD"/><path d="M255.294 400.965H135.918V291.317h119.376v109.648zm-113.964-5.412h108.554v-98.825H141.33v98.825z" fill="#12190C"/><path d="M176.337 339.71l-15.379 14.387 3.696 3.951 15.38-14.386-3.697-3.952zm0 16.082l-15.379 14.386 3.696 3.952 15.38-14.387-3.697-3.951z" fill="#12190C"/><path d="M100.767 297.907l35.842-30.074h168.063l-52.085 48.092s-2.782-18.895-18.787-20.431c-14.155-1.353-23.105 15.464-23.105 15.464s-6.439-15.54-19.295-15.54c-13.225 0-21.72 12.564-21.72 12.564s-6.882-12.564-20.561-12.564c-10.552 0-20.508 11.795-20.508 11.795s-8.278-9.068-16.297-11.362c-2.814-.812-11.547 2.056-11.547 2.056z" fill="#CEC9BD"/><path d="M131.371 315.929h-5.411a17.795 17.795 0 00-10.883-16.843 17.804 17.804 0 00-24.71 16.843h-5.41a23.211 23.211 0 0132.206-21.899 23.22 23.22 0 0114.208 21.899z" fill="#12190C"/><path d="M172.383 315.931h-5.41a17.8 17.8 0 00-5.215-12.588 17.798 17.798 0 00-25.175 0 17.798 17.798 0 00-5.214 12.588h-5.411a23.212 23.212 0 1146.425 0z" fill="#12190C"/><path d="M213.384 315.931h-5.411a17.802 17.802 0 10-35.604 0h-5.411a23.208 23.208 0 016.799-16.414 23.208 23.208 0 0132.828 0 23.213 23.213 0 016.799 16.414z" fill="#12190C"/><path d="M255.29 315.931h-5.411a17.802 17.802 0 10-35.604 0h-5.411a23.213 23.213 0 0146.426 0z" fill="#12190C"/><path d="M302.832 265.856l-52.085 48.096 3.671 3.975 52.084-48.095-3.67-3.976z" fill="#12190C"/><path d="M96.347 302.615l-3.323-4.275 42.649-33.212h168.994v5.411H137.534l-41.187 32.076z" fill="#12190C"/><path d="M171.532 265.808l-38.148 33.115 3.547 4.086 38.148-33.115-3.547-4.086zm37.291.089l-35.151 33.72 3.746 3.905 35.151-33.72-3.746-3.905zm47.009-.137l-39.638 33.236 3.476 4.146 39.638-33.236-3.476-4.146z" fill="#12190C"/><path d="M307.033 223.467v43.731H138.624v-43.731h42.735a41.534 41.534 0 0182.939 0h42.735z" fill="#ECFF3B"/><path d="M309.707 269.909H135.918v-49.142h42.952a44.241 44.241 0 0187.917 0h42.92v49.142zm-168.41-5.411h162.998v-38.32h-42.572l-.13-2.565a38.822 38.822 0 00-65.478-26.115 38.822 38.822 0 00-12.05 26.115l-.141 2.565H141.33l-.033 38.32z" fill="#12190C"/><path d="M241.957 203.365l-44.882 45.928 3.87 3.782 44.882-45.928-3.87-3.782zm-33.706 18.553a10.874 10.874 0 01-9.429-16.268 10.877 10.877 0 1116.561 13.617 10.884 10.884 0 01-7.132 2.651zm0-16.362a5.469 5.469 0 00-5.419 4.798 5.476 5.476 0 105.419-4.798zm27.699 48.327a10.898 10.898 0 11-.034-21.797 10.898 10.898 0 01.034 21.797zm0-16.362a5.48 5.48 0 00-5.432 4.797 5.477 5.477 0 004.085 5.986 5.477 5.477 0 101.347-10.783z" fill="#12190C"/><path d="M151.882 230.833h-5.411v20.886h5.411v-20.886z" fill="#CEC9BD"/></g><defs><clipPath id="clip0_1359_1753"><path fill="#fff" d="M0 0h481v436H0z"/></clipPath></defs></svg>