<svg width="210" height="103" fill="none" xmlns="http://www.w3.org/2000/svg"><path d="M10.542 47c.224-9.52.336-16.613.336-21.28 0-2.763-.075-7.392-.224-13.888-.075-3.957-.112-6.477-.112-7.56h31.304v6.272H19.054v13.664l21.28-.224v5.32l-21.28-.224c0 5.6.037 11.573.112 17.92h-8.624zM50.243 7.632c-1.904 0-3.248-.28-4.032-.84-.784-.597-1.176-1.512-1.176-2.744 0-1.232.392-2.147 1.176-2.744.784-.597 2.128-.896 4.032-.896s3.248.299 4.032.896c.784.597 1.176 1.512 1.176 2.744 0 1.232-.392 2.147-1.176 2.744-.784.56-2.128.84-4.032.84zM45.931 47c.15-5.115.224-10.547.224-16.296 0-7.99-.075-14.523-.224-19.6.336.037.915.093 1.736.168a59.35 59.35 0 002.576.056c.859 0 1.699-.019 2.52-.056.821-.075 1.4-.13 1.736-.168-.075 6.123-.112 12.656-.112 19.6 0 4.741.037 10.173.112 16.296h-8.568zm35.175.672c-3.21 0-5.917-.99-8.12-2.968-2.202-2.016-3.677-4.555-4.424-7.616h-.56L67.61 47h-7.336c.112-9.595.168-16.837.168-21.728 0-7.019-.056-13.85-.168-20.496l8.512-.728-.056 9.184c-.037 1.195-.149 2.688-.336 4.48a64.665 64.665 0 00-.336 3.864h.672c1.083-3.51 2.82-6.216 5.208-8.12 2.39-1.904 4.947-2.856 7.672-2.856 4.368 0 7.598 1.643 9.688 4.928 2.091 3.285 3.136 7.821 3.136 13.608 0 5.75-1.138 10.285-3.416 13.608-2.24 3.285-5.544 4.928-9.912 4.928zm-3.136-6.048c2.203 0 4.07-.653 5.6-1.96 1.68-2.912 2.52-6.384 2.52-10.416 0-3.136-.653-6.03-1.96-8.68-1.269-2.65-3.472-3.976-6.608-3.976-1.904 0-3.602.597-5.096 1.792-1.493 1.157-2.744 2.8-3.752 4.928v7.448c0 2.203.43 4.125 1.288 5.768.896 1.643 2.054 2.912 3.472 3.808 1.456.859 2.968 1.288 4.536 1.288zm42.165-2.016c.933-1.867 1.568-3.939 1.904-6.216l8.064.28c-.672 4.741-2.333 8.27-4.984 10.584-2.651 2.277-6.552 3.416-11.704 3.416-11.2 0-16.8-6.085-16.8-18.256 0-6.16 1.475-10.827 4.424-14 2.987-3.173 7.373-4.76 13.16-4.76 10.192 0 15.587 5.824 16.184 17.472l-25.424 2.184c.149 3.51 1.008 6.272 2.576 8.288s3.771 3.024 6.608 3.024c2.352 0 4.349-.672 5.992-2.016zm-6.552-22.96a9.934 9.934 0 00-3.92.784 8.453 8.453 0 00-3.08 2.128c-.896 2.315-1.419 4.947-1.568 7.896l17.08-1.4c-.411-2.987-1.344-5.301-2.8-6.944-1.456-1.643-3.36-2.464-5.712-2.464zm40.817-5.824c2.277 0 4.125.579 5.544 1.736 1.456 1.12 2.557 2.837 3.304 5.152.784 2.315 1.344 5.339 1.68 9.072l-8.288 1.008c-.411-3.547-1.213-6.272-2.408-8.176-1.157-1.941-2.819-2.912-4.984-2.912-2.613 0-4.76 1.848-6.44 5.544v8.008c0 7.504.075 13.085.224 16.744h-8.68c.149-3.733.224-9.67.224-17.808 0-8.139-.056-14.093-.168-17.864h8.624L141.8 21.576l.56.056c.971-3.472 2.576-6.141 4.816-8.008 2.24-1.867 4.648-2.8 7.224-2.8zm27.103 36.68c-3.286 0-5.75-.616-7.392-1.848-1.643-1.27-2.726-3.024-3.248-5.264-.523-2.24-.784-5.264-.784-9.072v-14l-5.096.168v-6.216c1.456 0 3.117.037 4.984.112V3.936c2.538 0 5.394-.093 8.568-.28 0 3.435-.019 6.01-.056 7.728 1.456 0 3.938-.037 7.448-.112l3.248-.056a29.416 29.416 0 00-.168 3.136c0 .635-.019 1.12-.056 1.456l-.056 1.736-10.472-.224v16.296c0 2.39.242 4.237.728 5.544.522 1.307 1.512 1.96 2.968 1.96 2.277 0 4.405-.28 6.384-.84l-.056 3.024c-.075 1.643-.112 2.744-.112 3.304-2.464.597-4.742.896-6.832.896zM.213 102c0-.896.038-2.501.113-4.816.15-7.317.224-12.805.224-16.464 0-5.301-.094-11.07-.28-17.304l-.056-4.144h18.2c3.92 0 7.112.336 9.576 1.008 2.501.672 4.386 1.848 5.656 3.528 1.27 1.68 1.904 4.013 1.904 7 0 3.957-1.083 6.87-3.248 8.736-2.128 1.83-5.283 2.781-9.464 2.856v.728c3.658.15 6.384.915 8.176 2.296 1.792 1.381 3.061 3.621 3.808 6.72.224 1.083.634 2.725 1.232 4.928.634 2.203 1.138 3.845 1.512 4.928h-9.072l-.672-2.688c-.859-3.472-1.382-5.805-1.568-7-.523-1.717-1.12-3.061-1.792-4.032a5.438 5.438 0 00-2.576-2.184c-1.083-.485-2.502-.728-4.256-.728H8.726V102H.214zM17.07 80.44c3.472 0 5.973-.616 7.504-1.848 1.568-1.27 2.352-3.23 2.352-5.88 0-2.875-.784-4.853-2.352-5.936-1.53-1.083-4.014-1.624-7.448-1.624H8.67V80.44h8.4zm45.62 14.168c.933-1.867 1.568-3.939 1.904-6.216l8.064.28c-.672 4.741-2.333 8.27-4.984 10.584-2.65 2.277-6.552 3.416-11.704 3.416-11.2 0-16.8-6.085-16.8-18.256 0-6.16 1.475-10.827 4.424-14 2.987-3.173 7.373-4.76 13.16-4.76 10.192 0 15.587 5.824 16.184 17.472l-25.424 2.184c.15 3.51 1.008 6.272 2.576 8.288s3.77 3.024 6.608 3.024c2.352 0 4.35-.672 5.992-2.016zm-6.552-22.96a9.932 9.932 0 00-3.92.784 8.453 8.453 0 00-3.08 2.128c-.896 2.315-1.419 4.947-1.568 7.896l17.08-1.4c-.41-2.987-1.344-5.301-2.8-6.944-1.456-1.643-3.36-2.464-5.712-2.464zm28.721-4.256c0 .56.15 1.232.448 2.016h11.368l-.336 5.88-9.352-.112-.056 12.432c0 5.264.075 10.061.224 14.392h-8.624c.112-3.323.168-8.083.168-14.28V75.176l-4.536.112v-5.88h4.648c-1.008-1.195-1.512-2.8-1.512-4.816 0-1.568.504-2.95 1.512-4.144 1.045-1.232 2.483-2.184 4.312-2.856 1.83-.672 3.92-1.008 6.272-1.008 1.307 0 2.65.093 4.032.28 1.381.15 2.539.355 3.472.616l-.392 6.496a12.09 12.09 0 00-4.48-.84c-2.128 0-3.864.373-5.208 1.12-1.307.747-1.96 1.792-1.96 3.136zm47.736-1.064c-.187 3.733-.28 9.67-.28 17.808 0 8.139.075 14.093.224 17.864h-8.68l.952-10.192h-.616c-.933 3.248-2.632 5.899-5.096 7.952-2.427 2.016-5.152 3.024-8.176 3.024-3.883 0-6.608-1.195-8.176-3.584-1.568-2.427-2.408-6.085-2.52-10.976a161.584 161.584 0 01-.056-4.424c0-1.643-.019-3.285-.056-4.928 0-1.53-.019-3.77-.056-6.72-.037-2.987-.075-4.928-.112-5.824h8.568c-.112 4.741-.168 8.419-.168 11.032v7.504c0 3.472.429 6.328 1.288 8.568.859 2.203 2.613 3.304 5.264 3.304 1.829 0 3.621-.653 5.376-1.96 1.792-1.307 3.061-2.893 3.808-4.76v-7.56c0-7.168-.075-12.544-.224-16.128h8.736zM138.352 102c.149-3.733.224-9.67.224-17.808 0-8.139-.056-14.093-.168-17.864h8.624l-.896 10.248h.56c.97-3.285 2.688-5.936 5.152-7.952 2.501-2.016 5.282-3.024 8.344-3.024 3.845 0 6.533 1.195 8.064 3.584 1.53 2.39 2.352 6.048 2.464 10.976.037 1.344.056 2.837.056 4.48 0 1.605.018 3.23.056 4.872 0 1.53.018 3.77.056 6.72.037 2.95.074 4.872.112 5.768h-8.568l.112-3.92.056-5.04v-2.296c-.038-1.045-.056-3.472-.056-7.28 0-3.472-.43-6.31-1.288-8.512-.859-2.24-2.595-3.36-5.208-3.36-1.83 0-3.64.653-5.432 1.96-1.755 1.27-3.024 2.856-3.808 4.76v7.616c0 7.13.074 12.488.224 16.072h-8.68zm62.038 0c.522-6.048.84-9.464.952-10.248l-.616-.056c-1.12 3.323-2.819 5.992-5.096 8.008-2.24 2.016-4.984 3.024-8.232 3.024-4.07 0-7.168-1.587-9.296-4.76-2.091-3.173-3.136-7.803-3.136-13.888 0-5.75 1.138-10.248 3.416-13.496 2.314-3.285 5.712-4.928 10.192-4.928 1.941 0 3.77.43 5.488 1.288a11.318 11.318 0 014.368 3.584c1.194 1.568 1.96 3.379 2.296 5.432h.672c-.112-2.277-.318-5.021-.616-8.232a340.92 340.92 0 01-.112-7.952l8.4-.728c-.075 4.555-.112 12.507-.112 23.856 0 7.504.056 13.87.168 19.096h-8.736zm-9.016-5.32c2.053 0 3.901-.597 5.544-1.792 1.642-1.195 2.93-2.837 3.864-4.928v-7.504c0-2.053-.43-3.901-1.288-5.544-.859-1.643-1.998-2.93-3.416-3.864-1.382-.933-2.875-1.4-4.48-1.4-2.054 0-3.976.653-5.768 1.96-1.68 2.912-2.52 6.384-2.52 10.416 0 1.83.224 3.715.672 5.656.485 1.904 1.325 3.547 2.52 4.928 1.194 1.381 2.818 2.072 4.872 2.072z" fill="#fff"/></svg>