<svg width="377" height="91" fill="none" xmlns="http://www.w3.org/2000/svg"><g filter="url(#filter0_b_1359_1708)"><rect x=".468" y=".726" width="376.17" height="90.281" rx="5.016" fill="url(#paint0_linear_1359_1708)" fill-opacity=".64"/><path d="M36.58 53.067c-1.35 0-2.427-.388-3.23-1.163-.79-.79-1.184-1.84-1.184-3.15v-6.42c0-1.311.395-2.354 1.184-3.13.803-.79 1.88-1.184 3.23-1.184s2.42.395 3.21 1.184c.803.776 1.204 1.819 1.204 3.13v6.42c0 .869-.18 1.631-.542 2.287a3.806 3.806 0 01-1.545 1.505c-.655.347-1.43.521-2.327.521zm0-1.545c.803 0 1.445-.254 1.926-.762.495-.522.742-1.19.742-2.006v-6.42c0-.816-.247-1.478-.742-1.987-.481-.521-1.123-.782-1.926-.782-.802 0-1.451.26-1.946.782-.481.509-.722 1.17-.722 1.987v6.42c0 .816.24 1.484.722 2.006.495.508 1.144.762 1.946.762zm0-4.795c-.361 0-.655-.113-.883-.34-.214-.228-.32-.529-.32-.904 0-.36.106-.648.32-.862.228-.228.522-.341.883-.341s.649.113.863.34c.227.215.34.502.34.864 0 .374-.113.675-.34.902-.214.228-.502.341-.863.341zm6.813 6.14l4.213-7.424-3.992-7.222h2.087l2.267 4.333c.12.228.24.475.36.743.134.254.241.454.322.602.067-.148.16-.348.28-.602.134-.268.261-.515.382-.743l2.307-4.333h1.986l-3.992 7.102 4.213 7.544h-2.067l-2.507-4.655-.382-.722c-.12-.268-.213-.482-.28-.642-.067.16-.168.367-.301.622-.12.254-.241.495-.361.722L45.4 52.867h-2.007zm13.033 0V51.22h3.972V39.726l-3.972 2.969v-2.006l3.31-2.468h2.468v13h3.25v1.646h-9.028zm16.203.2c-1.19 0-2.167-.307-2.93-.923-.762-.615-1.21-1.444-1.344-2.487h1.806c.067.575.314 1.023.742 1.344.428.307 1.01.461 1.746.461.842 0 1.471-.227 1.886-.682.428-.455.642-1.097.642-1.926v-1.425c0-.829-.214-1.47-.642-1.925-.415-.455-1.037-.683-1.866-.683-.522 0-.977.14-1.364.422a2.265 2.265 0 00-.843 1.083h-1.806l.1-8.105h7.705v1.645h-5.959l-.06 4.875h.08c.12-.468.415-.836.883-1.103.481-.268 1.083-.401 1.805-.401 1.19-.014 2.114.354 2.77 1.103.668.736 1.002 1.765 1.002 3.09v1.424c0 1.297-.38 2.327-1.143 3.09-.763.749-1.833 1.123-3.21 1.123zm11.849 0c-.883 0-1.659-.174-2.328-.522a3.877 3.877 0 01-1.524-1.484c-.361-.629-.542-1.364-.542-2.207h1.806c0 .816.227 1.458.682 1.926.468.455 1.11.682 1.926.682.83 0 1.471-.24 1.926-.722.454-.482.682-1.11.682-1.886v-1.003c0-.83-.227-1.471-.682-1.926-.455-.455-1.097-.682-1.926-.682h-1.585v-1.565l3.49-3.812h-5.717v-1.645h7.764v1.685l-3.43 3.752c1.19.093 2.133.515 2.828 1.264.71.749 1.064 1.725 1.064 2.929v1.003c0 .843-.188 1.578-.562 2.207a3.844 3.844 0 01-1.545 1.484c-.669.348-1.445.522-2.327.522zm8.077-.2V38.22h3.792c.95 0 1.765.18 2.447.542a3.83 3.83 0 011.605 1.524c.388.656.582 1.431.582 2.328v5.838c0 .896-.194 1.678-.582 2.347a3.838 3.838 0 01-1.605 1.525c-.682.36-1.498.541-2.447.541h-3.792zm1.806-1.605h1.986c.883 0 1.571-.248 2.066-.743.508-.495.763-1.183.763-2.066v-5.838c0-.87-.255-1.552-.763-2.047-.495-.495-1.183-.742-2.066-.742H94.36V51.26zm14.356 1.805c-1.19 0-2.166-.307-2.929-.923-.762-.615-1.21-1.444-1.344-2.487h1.806c.067.575.314 1.023.742 1.344.428.307 1.01.461 1.746.461.842 0 1.471-.227 1.885-.682.428-.455.642-1.097.642-1.926v-1.425c0-.829-.214-1.47-.642-1.925-.414-.455-1.036-.683-1.865-.683-.522 0-.977.14-1.365.422a2.264 2.264 0 00-.842 1.083h-1.806l.1-8.105h7.704v1.645h-5.958l-.06 4.875h.08c.12-.468.415-.836.883-1.103.481-.268 1.083-.401 1.805-.401 1.191-.014 2.114.354 2.769 1.103.669.736 1.003 1.765 1.003 3.09v1.424c0 1.297-.381 2.327-1.144 3.09-.762.749-1.832 1.123-3.21 1.123zm12.07 0c-.936 0-1.759-.16-2.467-.481-.709-.335-1.258-.79-1.646-1.365-.387-.588-.581-1.264-.581-2.026 0-.83.26-1.598.782-2.307.535-.722 1.244-1.284 2.127-1.685-.87-.428-1.518-.937-1.946-1.525-.428-.602-.642-1.244-.642-1.926 0-.736.187-1.384.561-1.946a3.998 3.998 0 011.565-1.324c.656-.321 1.405-.482 2.247-.482.843 0 1.592.16 2.247.482.669.32 1.191.762 1.565 1.324.375.562.562 1.21.562 1.946 0 .669-.214 1.304-.642 1.906-.428.588-1.077 1.103-1.946 1.545.883.4 1.585.963 2.106 1.685.535.709.803 1.478.803 2.307 0 .762-.194 1.438-.582 2.026-.388.576-.936 1.03-1.645 1.365-.696.32-1.518.481-2.468.481zm-.582-8.767l.582.22.502-.2c.628-.24 1.137-.582 1.525-1.023.387-.455.581-.95.581-1.485 0-.655-.24-1.184-.722-1.585-.481-.414-1.11-.622-1.886-.622-.776 0-1.404.208-1.886.622a2 2 0 00-.722 1.585c0 .549.187 1.043.562 1.485.374.441.863.775 1.464 1.003zm.582 7.162c.883 0 1.592-.227 2.127-.682.535-.468.802-1.077.802-1.826a2.53 2.53 0 00-.541-1.585c-.361-.481-.87-.849-1.525-1.103l-.863-.341-.923.361c-.642.254-1.137.622-1.484 1.103a2.56 2.56 0 00-.522 1.565c0 .75.268 1.358.803 1.826.535.455 1.243.682 2.126.682zm11.809 1.605c-.883 0-1.658-.174-2.327-.522a3.88 3.88 0 01-1.525-1.484c-.361-.629-.542-1.364-.542-2.207h1.806c0 .816.227 1.458.682 1.926.468.455 1.11.682 1.926.682.829 0 1.471-.24 1.926-.722.455-.482.682-1.11.682-1.886v-1.003c0-.83-.227-1.471-.682-1.926-.455-.455-1.097-.682-1.926-.682h-1.585v-1.565l3.491-3.812h-5.718v-1.645h7.764v1.685l-3.43 3.752c1.19.093 2.133.515 2.829 1.264.708.749 1.063 1.725 1.063 2.929v1.003c0 .843-.187 1.578-.562 2.207a3.842 3.842 0 01-1.545 1.484c-.668.348-1.444.522-2.327.522zm12.25 0c-.936 0-1.758-.16-2.467-.481-.709-.335-1.258-.79-1.645-1.365-.388-.588-.582-1.264-.582-2.026 0-.83.261-1.598.782-2.307.535-.722 1.244-1.284 2.127-1.685-.87-.428-1.518-.937-1.946-1.525-.428-.602-.642-1.244-.642-1.926 0-.736.187-1.384.562-1.946a3.988 3.988 0 011.564-1.324c.656-.321 1.405-.482 2.247-.482.843 0 1.592.16 2.247.482.669.32 1.191.762 1.565 1.324.375.562.562 1.21.562 1.946 0 .669-.214 1.304-.642 1.906-.428.588-1.077 1.103-1.946 1.545.883.4 1.585.963 2.107 1.685.534.709.802 1.478.802 2.307 0 .762-.194 1.438-.582 2.026-.388.576-.936 1.03-1.645 1.365-.695.32-1.518.481-2.468.481zm-.581-8.767l.581.22.502-.2c.629-.24 1.137-.582 1.525-1.023.388-.455.582-.95.582-1.485 0-.655-.241-1.184-.723-1.585-.481-.414-1.11-.622-1.886-.622-.775 0-1.404.208-1.885.622a1.998 1.998 0 00-.723 1.585c0 .549.188 1.043.562 1.485.375.441.863.775 1.465 1.003zm.581 7.162c.883 0 1.592-.227 2.127-.682.535-.468.803-1.077.803-1.826a2.53 2.53 0 00-.542-1.585c-.361-.481-.87-.849-1.525-1.103l-.863-.341-.922.361c-.642.254-1.137.622-1.485 1.103a2.56 2.56 0 00-.522 1.565c0 .75.268 1.358.803 1.826.535.455 1.244.682 2.126.682zm12.03 1.605c-.936 0-1.759-.16-2.468-.481-.709-.335-1.257-.79-1.645-1.365-.388-.588-.582-1.264-.582-2.026 0-.83.261-1.598.783-2.307.535-.722 1.244-1.284 2.126-1.685-.869-.428-1.518-.937-1.946-1.525-.428-.602-.642-1.244-.642-1.926 0-.736.188-1.384.562-1.946a3.998 3.998 0 011.565-1.324c.655-.321 1.404-.482 2.247-.482s1.592.16 2.247.482c.669.32 1.19.762 1.565 1.324.374.562.562 1.21.562 1.946 0 .669-.214 1.304-.642 1.906-.428.588-1.077 1.103-1.946 1.545.882.4 1.584.963 2.106 1.685.535.709.803 1.478.803 2.307 0 .762-.194 1.438-.582 2.026-.388.576-.936 1.03-1.645 1.365-.696.32-1.518.481-2.468.481zm-.582-8.767l.582.22.502-.2c.628-.24 1.136-.582 1.524-1.023.388-.455.582-.95.582-1.485 0-.655-.241-1.184-.722-1.585-.482-.414-1.11-.622-1.886-.622-.776 0-1.404.208-1.886.622a2 2 0 00-.722 1.585c0 .549.187 1.043.562 1.485.374.441.862.775 1.464 1.003zm.582 7.162c.883 0 1.592-.227 2.127-.682.535-.468.802-1.077.802-1.826 0-.588-.18-1.117-.542-1.585-.361-.481-.869-.849-1.524-1.103l-.863-.341-.923.361c-.642.254-1.137.622-1.484 1.103a2.56 2.56 0 00-.522 1.565c0 .75.267 1.358.802 1.826.535.455 1.244.682 2.127.682zm8.017 1.404V38.222h8.426v1.645h-6.64V44.4h5.938v1.605h-5.938v5.216h6.64v1.646h-8.426zm19.854.201a.943.943 0 01-.722-.3c-.187-.202-.281-.469-.281-.803v-1.405c0-.334.094-.602.281-.802a.943.943 0 01.722-.301c.308 0 .548.1.722.3.188.201.281.469.281.803v1.405c0 .334-.093.602-.281.802-.174.2-.414.301-.722.301zm-7.624 0a.943.943 0 01-.722-.3c-.187-.202-.281-.469-.281-.803v-1.405c0-.334.094-.602.281-.802a.943.943 0 01.722-.301c.308 0 .549.1.723.3.187.201.28.469.28.803v1.405c0 .334-.093.602-.28.802-.174.2-.415.301-.723.301zm3.812 0a.943.943 0 01-.722-.3c-.187-.202-.281-.469-.281-.803v-1.405c0-.334.094-.602.281-.802a.943.943 0 01.722-.301c.308 0 .549.1.722.3.188.201.281.469.281.803v1.405c0 .334-.093.602-.281.802-.173.2-.414.301-.722.301z" fill="#fff"/><path opacity=".4" d="M204.974 50.96v-3.912h-3.832v-1.605h3.832v-3.912h1.765v3.912h3.832v1.605h-3.832v3.913h-1.765zm14.918 1.907v-3.21h-6.62v-2.83l5.336-8.606h1.986l-5.517 8.968v.822h4.815v-3.57h1.806v8.425h-1.806zm6.011 0V38.22h8.426v1.645h-6.64V44.4h5.938v1.605h-5.938v5.216h6.64v1.646h-8.426zm15.139 0V39.866h-4.012v-1.645h9.83v1.645h-4.012v13h-1.806zm8.78 0V38.22h1.805v6.26h4.695v-6.26h1.806v14.646h-1.806v-6.741h-4.695v6.74h-1.805z" fill="#fff"/><path d="M322.346 52.867l4.214-7.424-3.993-7.222h2.087l2.267 4.333c.12.228.24.475.361.743.134.254.241.454.321.602.067-.148.16-.348.281-.602.133-.268.26-.515.381-.743l2.307-4.333h1.986l-3.992 7.102 4.213 7.544h-2.067l-2.507-4.655-.382-.722c-.12-.268-.214-.482-.28-.642-.067.16-.168.367-.301.622a19.42 19.42 0 01-.361.722l-2.528 4.675h-2.007zm13.073 0V51.08l4.675-5.096c.695-.749 1.197-1.418 1.504-2.006.321-.589.482-1.164.482-1.725 0-.803-.234-1.438-.702-1.907-.468-.481-1.104-.722-1.906-.722-.816 0-1.465.248-1.946.743-.468.481-.702 1.136-.702 1.966h-1.806c.04-1.324.461-2.374 1.264-3.15.802-.776 1.866-1.164 3.19-1.164 1.351 0 2.421.381 3.21 1.144.802.762 1.204 1.799 1.204 3.11 0 .695-.208 1.424-.622 2.186-.402.763-1.057 1.639-1.966 2.629l-3.812 4.132h6.64v1.646h-8.707z" fill="#30FF5E"/></g><defs><linearGradient id="paint0_linear_1359_1708" x1="133.234" y1="97.903" x2="133.234" y2="-196.763" gradientUnits="userSpaceOnUse"><stop stop-color="#161618"/><stop offset="1" stop-color="#161618" stop-opacity="0"/></linearGradient><filter id="filter0_b_1359_1708" x="-12.698" y="-12.44" width="402.502" height="116.613" filterUnits="userSpaceOnUse" color-interpolation-filters="sRGB"><feFlood flood-opacity="0" result="BackgroundImageFix"/><feGaussianBlur in="BackgroundImageFix" stdDeviation="6.583"/><feComposite in2="SourceAlpha" operator="in" result="effect1_backgroundBlur_1359_1708"/><feBlend in="SourceGraphic" in2="effect1_backgroundBlur_1359_1708" result="shape"/></filter></defs></svg>