<svg width="168" height="100" fill="none" xmlns="http://www.w3.org/2000/svg"><path d="M49.582 40h-5.605V10.96h-.192L31.891 39.7h-4.54L15.43 10.96h-.192V40H9.66V.543h7.082l12.77 31.145h.218L42.474.543h7.109V40zm14.46-4.184c2.078 0 3.818-.629 5.222-1.886 1.422-1.276 2.133-2.844 2.133-4.703v-2.27l-7.082.438c-1.768.127-3.136.565-4.102 1.312-.948.73-1.422 1.714-1.422 2.953 0 1.258.474 2.27 1.422 3.035.966.748 2.242 1.121 3.828 1.121zM62.4 40.492c-2.826 0-5.132-.802-6.918-2.406-1.768-1.604-2.652-3.691-2.652-6.262 0-2.515.93-4.512 2.788-5.988 1.86-1.495 4.494-2.333 7.903-2.516l7.875-.465v-2.214c0-1.604-.51-2.853-1.531-3.746-1.021-.912-2.434-1.368-4.239-1.368-1.677 0-3.044.374-4.101 1.121-1.04.748-1.696 1.778-1.969 3.09h-5.578c.164-2.661 1.312-4.83 3.445-6.508 2.133-1.677 4.94-2.515 8.422-2.515s6.253.857 8.313 2.57c2.078 1.714 3.117 4.01 3.117 6.89V40h-5.66v-4.73h-.137c-.82 1.585-2.07 2.852-3.746 3.8a10.573 10.573 0 01-5.332 1.422zM81.618 40V11.234h5.633v4.813h.136c.803-1.677 1.97-2.98 3.5-3.91 1.532-.93 3.382-1.395 5.551-1.395 3.154 0 5.606.948 7.356 2.844 1.75 1.877 2.625 4.475 2.625 7.793V40h-5.934V22.527c0-2.187-.52-3.846-1.558-4.976-1.021-1.149-2.543-1.723-4.567-1.723-2.078 0-3.737.675-4.976 2.024-1.24 1.349-1.86 3.144-1.86 5.386V40h-5.906zm30.838-35.574h5.934v6.808h5.469v4.676h-5.469v15.86c0 1.24.282 2.15.848 2.734.565.583 1.449.875 2.652.875.875 0 1.522-.046 1.941-.137v4.676c-.729.182-1.823.273-3.281.273-2.898 0-4.977-.592-6.234-1.777-1.24-1.203-1.86-3.2-1.86-5.988V15.91h-4.183v-4.676h4.183V4.426zm24.495 31.39c2.078 0 3.819-.629 5.222-1.886 1.422-1.276 2.133-2.844 2.133-4.703v-2.27l-7.082.438c-1.768.127-3.135.565-4.101 1.312-.948.73-1.422 1.714-1.422 2.953 0 1.258.474 2.27 1.422 3.035.966.748 2.242 1.121 3.828 1.121zm-1.641 4.676c-2.825 0-5.131-.802-6.918-2.406-1.768-1.604-2.652-3.691-2.652-6.262 0-2.515.93-4.512 2.789-5.988 1.859-1.495 4.493-2.333 7.902-2.516l7.875-.465v-2.214c0-1.604-.51-2.853-1.531-3.746-1.021-.912-2.434-1.368-4.238-1.368-1.677 0-3.045.374-4.102 1.121-1.039.748-1.695 1.778-1.969 3.09h-5.578c.164-2.661 1.313-4.83 3.446-6.508 2.132-1.677 4.94-2.515 8.421-2.515 3.482 0 6.253.857 8.313 2.57 2.078 1.714 3.117 4.01 3.117 6.89V40h-5.66v-4.73h-.137c-.82 1.585-2.069 2.852-3.746 3.8a10.573 10.573 0 01-5.332 1.422zM29.528 90l-3.61-10.664H10.88L7.27 90H.9l14.245-39.457h6.617L36.01 90h-6.48zm-11.21-32.895l-5.88 17.31H24.36l-5.879-17.31h-.164zM38.436 90V61.234h5.906V90h-5.906zm5.386-33.96a3.364 3.364 0 01-2.433.983c-.948 0-1.76-.328-2.434-.984a3.241 3.241 0 01-.984-2.379c0-.948.328-1.75.984-2.406a3.365 3.365 0 012.434-.984c.966 0 1.777.328 2.433.984.675.656 1.012 1.458 1.012 2.406 0 .93-.337 1.723-1.012 2.38zM48.986 90V61.234h5.633v4.895h.136c.474-1.677 1.322-2.99 2.543-3.938 1.222-.948 2.68-1.422 4.375-1.422.566 0 1.24.073 2.024.22v5.495c-.529-.218-1.413-.328-2.653-.328-1.895 0-3.4.593-4.511 1.778-1.094 1.184-1.64 2.798-1.64 4.84V90h-5.907zm26.518.492c-3.646 0-6.572-1.349-8.777-4.047-2.206-2.698-3.309-6.307-3.309-10.828 0-4.52 1.094-8.12 3.281-10.8 2.206-2.698 5.123-4.047 8.75-4.047 2.024 0 3.828.473 5.414 1.421a9.133 9.133 0 013.61 3.828h.109V50.543h5.934V90h-5.743v-4.894h-.109a9.677 9.677 0 01-3.691 3.964c-1.586.948-3.41 1.422-5.47 1.422zm1.558-24.746c-2.333 0-4.183.893-5.55 2.68-1.368 1.768-2.051 4.165-2.051 7.191 0 3.044.683 5.45 2.05 7.219 1.368 1.768 3.218 2.652 5.552 2.652 2.278 0 4.11-.893 5.496-2.68 1.385-1.804 2.078-4.201 2.078-7.19 0-2.972-.693-5.36-2.078-7.165-1.386-1.805-3.218-2.707-5.496-2.707zM95.186 90V61.234h5.633v4.895h.136c.474-1.677 1.322-2.99 2.543-3.938 1.222-.948 2.68-1.422 4.375-1.422.566 0 1.24.073 2.024.22v5.495c-.529-.218-1.413-.328-2.652-.328-1.896 0-3.4.593-4.512 1.778-1.094 1.184-1.641 2.798-1.641 4.84V90h-5.906zm38.002-3.445c-2.479 2.661-5.787 3.992-9.926 3.992-4.138 0-7.446-1.33-9.925-3.992-2.479-2.68-3.719-6.326-3.719-10.938 0-4.594 1.24-8.221 3.719-10.883 2.479-2.68 5.787-4.02 9.925-4.02 4.139 0 7.447 1.34 9.926 4.02 2.479 2.662 3.719 6.29 3.719 10.883 0 4.612-1.24 8.258-3.719 10.938zm-9.926-.875c2.352 0 4.211-.884 5.579-2.653 1.367-1.768 2.05-4.238 2.05-7.41 0-3.154-.692-5.614-2.078-7.383-1.367-1.768-3.217-2.652-5.551-2.652-2.333 0-4.192.884-5.578 2.652-1.367 1.769-2.05 4.23-2.05 7.383 0 3.172.683 5.642 2.05 7.41 1.386 1.769 3.245 2.653 5.578 2.653zm31.796-24.91c3.664 0 6.599 1.34 8.805 4.02 2.205 2.679 3.308 6.288 3.308 10.827 0 4.54-1.094 8.158-3.281 10.856-2.188 2.68-5.095 4.02-8.723 4.02-2.041 0-3.855-.466-5.441-1.395a9.366 9.366 0 01-3.61-3.829h-.136v14.247h-5.907V61.234h5.715v4.95h.11a9.672 9.672 0 013.691-3.965c1.604-.966 3.427-1.45 5.469-1.45zm-1.559 24.718c2.334 0 4.184-.884 5.551-2.652 1.367-1.787 2.051-4.193 2.051-7.219 0-3.008-.684-5.405-2.051-7.191-1.367-1.787-3.217-2.68-5.551-2.68-2.26 0-4.083.902-5.469 2.707-1.385 1.805-2.078 4.193-2.078 7.164 0 2.99.684 5.387 2.051 7.192 1.386 1.786 3.218 2.68 5.496 2.68z" fill="#F0F0EC"/></svg>